<svg data-v-0dd9719b="" version="1.0" xmlns="http://www.w3.org/2000/svg" xmlns:xlink="http://www.w3.org/1999/xlink" width="100%" height="100%" viewBox="0 0 100 100" preserveAspectRatio="xMidYMid meet" color-interpolation-filters="sRGB" style="margin: auto;"> <rect data-v-0dd9719b="" x="0" y="0" width="100%" height="100%" fill="#ffffff" fill-opacity="1" class="background" style="display: none;"></rect> <rect data-v-0dd9719b="" x="0" y="0" width="100%" height="100%" fill="url(#watermark)" fill-opacity="1" class="watermarklayer" style="display: none;"></rect> <g data-v-0dd9719b="" fill="#43a756" class="iconsvg-imagesvg"><rect fill="#383c93" fill-opacity="0" stroke-width="2" x="0" y="0" width="100" height="100" class="image-rect"></rect> <svg viewBox="0 0 60 60" x="0" y="0" width="100" height="100" class="image-svg-svg bn" style="overflow: visible;"><g hollow-target="iconBnFill" mask="url(#b1ed4040-5316-440d-94e0-9cc89d8377a2)"><g><svg fill="#000000" xmlns="http://www.w3.org/2000/svg" xmlns:xlink="http://www.w3.org/1999/xlink" xml:space="preserve" version="1.1" style="shape-rendering: geometricprecision; text-rendering: geometricprecision; overflow: visible;" viewBox="0 0 249 249" x="0" y="0" fill-rule="evenodd" clip-rule="evenodd" width="60" height="60" filtersec="colorsf1379087659" filter="url(#gXUDyAXFhA1YnlWO4PzaP)"><g transform="scale(1, 1) skewX(0)"><defs><filter id="gXUDyAXFhA1YnlWO4PzaP"><feColorMatrix type="matrix" values="0 0 0 0 0.26171875  0 0 0 0 0.65234375  0 0 0 0 0.3359375  0 0 0 1 0"></feColorMatrix></filter></defs><g><path class="fil0" d="M125 0c68,0 124,56 124,125 0,68 -56,124 -124,124 -69,0 -125,-56 -125,-124 0,-69 56,-125 125,-125z"></path></g></g></svg></g> <g filter="url(#colors9166642668)"><svg xmlns="http://www.w3.org/2000/svg" xmlns:xlink="http://www.w3.org/1999/xlink" viewBox="0 0 65.52000000000001 58.68000000000001" width="45" height="45" x="7.5" y="7.5" class="image-svg-letter"><path transform="translate(-3.24 55.00800000000001)" d="M66.38 3.53L66.38 3.53L24.91 3.53Q22.39 3.53 22.39 0.86L22.39 0.86L22.39-8.21Q22.39-11.09 24.77-11.09L24.77-11.09L38.02-11.09L38.02-18.72L26.71-18.72Q24.26-18.72 24.26-21.46L24.26-21.46L24.26-30.46Q24.26-33.34 26.57-33.34L26.57-33.34L38.02-33.34L38.02-40.10L25.63-40.10Q23.18-40.10 23.18-42.91L23.18-42.91L23.18-51.84Q23.18-54.79 25.56-54.79L25.56-54.79L65.38-54.72Q67.90-54.72 67.90-51.91L67.90-51.91L67.97-42.91Q67.97-40.10 65.59-40.10L65.59-40.10L53.21-40.10L53.21-33.34L64.22-33.26Q66.82-33.26 66.82-30.46L66.82-30.46L66.89-21.46Q66.89-18.72 64.51-18.72L64.51-18.72L53.21-18.72L53.21-11.02L66.17-11.02Q68.69-11.02 68.69-8.28L68.69-8.28L68.76 0.86Q68.76 3.53 66.38 3.53ZM16.06 3.67L16.06 3.67L6.70 3.67Q3.74 3.67 3.74 1.08L3.74 1.08Q3.67-1.01 3.92-2.70Q4.18-4.39 4.54-5.83L4.54-5.83L6.98-15.70Q7.42-17.50 9.58-17.50L9.58-17.50L18.86-17.42Q20.30-17.42 20.52-16.06L20.52-16.06Q20.52-12.10 20.52-9.68Q20.52-7.27 20.45-6.34L20.45-6.34L18.72 1.08Q18.36 3.67 16.06 3.67ZM18.36-37.73L18.36-37.73L10.87-37.73Q8.50-37.73 7.34-39.53L7.34-39.53L4.97-43.13Q3.60-44.50 3.60-46.58L3.60-46.58L3.60-52.63Q3.60-54.94 5.62-55.01L5.62-55.01L13.97-55.01Q15.12-54.86 15.84-54.22L15.84-54.22L20.16-49.68Q20.88-48.24 20.88-45.94L20.88-45.94Q20.52-45.94 20.70-44.68Q20.88-43.42 20.92-41.90Q20.95-40.39 20.48-39.10Q20.02-37.80 18.36-37.73ZM18.07-19.30L18.07-19.30L10.58-19.30Q9.29-19.30 8.46-19.80Q7.63-20.30 6.98-21.13Q6.34-21.96 5.80-22.90Q5.26-23.83 4.68-24.70L4.68-24.70Q3.24-26.28 3.24-28.22L3.24-28.22L3.24-34.27Q3.24-36.43 5.40-36.58L5.40-36.58L13.61-36.58Q14.90-36.43 15.55-35.78L15.55-35.78L19.80-31.25Q20.59-29.66 20.59-27.50L20.59-27.50Q20.52-27.58 20.52-21.74L20.52-21.74Q20.52-19.37 18.07-19.30Z"></path></svg></g></g><mask id="b1ed4040-5316-440d-94e0-9cc89d8377a2"><g fill="white"><svg xmlns="http://www.w3.org/2000/svg" xmlns:xlink="http://www.w3.org/1999/xlink" xml:space="preserve" version="1.1" style="shape-rendering: geometricprecision; text-rendering: geometricprecision; overflow: visible;" viewBox="0 0 249 249" x="0" y="0" fill-rule="evenodd" clip-rule="evenodd" width="60" height="60" filtersec="colorsf1379087659"><g transform="scale(1, 1) skewX(0)"><defs></defs><g><path d="M125 0c68,0 124,56 124,125 0,68 -56,124 -124,124 -69,0 -125,-56 -125,-124 0,-69 56,-125 125,-125z"></path></g></g></svg></g> <g fill="black"><svg xmlns="http://www.w3.org/2000/svg" xmlns:xlink="http://www.w3.org/1999/xlink" viewBox="0 0 65.52000000000001 58.68000000000001" width="45" height="45" x="7.5" y="7.5" class="image-svg-letter"><path transform="translate(-3.24 55.00800000000001)" d="M66.38 3.53L66.38 3.53L24.91 3.53Q22.39 3.53 22.39 0.86L22.39 0.86L22.39-8.21Q22.39-11.09 24.77-11.09L24.77-11.09L38.02-11.09L38.02-18.72L26.71-18.72Q24.26-18.72 24.26-21.46L24.26-21.46L24.26-30.46Q24.26-33.34 26.57-33.34L26.57-33.34L38.02-33.34L38.02-40.10L25.63-40.10Q23.18-40.10 23.18-42.91L23.18-42.91L23.18-51.84Q23.18-54.79 25.56-54.79L25.56-54.79L65.38-54.72Q67.90-54.72 67.90-51.91L67.90-51.91L67.97-42.91Q67.97-40.10 65.59-40.10L65.59-40.10L53.21-40.10L53.21-33.34L64.22-33.26Q66.82-33.26 66.82-30.46L66.82-30.46L66.89-21.46Q66.89-18.72 64.51-18.72L64.51-18.72L53.21-18.72L53.21-11.02L66.17-11.02Q68.69-11.02 68.69-8.28L68.69-8.28L68.76 0.86Q68.76 3.53 66.38 3.53ZM16.06 3.67L16.06 3.67L6.70 3.67Q3.74 3.67 3.74 1.08L3.74 1.08Q3.67-1.01 3.92-2.70Q4.18-4.39 4.54-5.83L4.54-5.83L6.98-15.70Q7.42-17.50 9.58-17.50L9.58-17.50L18.86-17.42Q20.30-17.42 20.52-16.06L20.52-16.06Q20.52-12.10 20.52-9.68Q20.52-7.27 20.45-6.34L20.45-6.34L18.72 1.08Q18.36 3.67 16.06 3.67ZM18.36-37.73L18.36-37.73L10.87-37.73Q8.50-37.73 7.34-39.53L7.34-39.53L4.97-43.13Q3.60-44.50 3.60-46.58L3.60-46.58L3.60-52.63Q3.60-54.94 5.62-55.01L5.62-55.01L13.97-55.01Q15.12-54.86 15.84-54.22L15.84-54.22L20.16-49.68Q20.88-48.24 20.88-45.94L20.88-45.94Q20.52-45.94 20.70-44.68Q20.88-43.42 20.92-41.90Q20.95-40.39 20.48-39.10Q20.02-37.80 18.36-37.73ZM18.07-19.30L18.07-19.30L10.58-19.30Q9.29-19.30 8.46-19.80Q7.63-20.30 6.98-21.13Q6.34-21.96 5.80-22.90Q5.26-23.83 4.68-24.70L4.68-24.70Q3.24-26.28 3.24-28.22L3.24-28.22L3.24-34.27Q3.24-36.43 5.40-36.58L5.40-36.58L13.61-36.58Q14.90-36.43 15.55-35.78L15.55-35.78L19.80-31.25Q20.59-29.66 20.59-27.50L20.59-27.50Q20.52-27.58 20.52-21.74L20.52-21.74Q20.52-19.37 18.07-19.30Z"></path></svg></g></mask></svg> <defs><filter id="colors9166642668"><feColorMatrix type="matrix" values="0 0 0 0 0.21875  0 0 0 0 0.234375  0 0 0 0 0.57421875  0 0 0 1 0" class="icon-fecolormatrix"></feColorMatrix></filter> <filter id="colorsf1379087659"><feColorMatrix type="matrix" values="0 0 0 0 0.99609375  0 0 0 0 0.99609375  0 0 0 0 0.99609375  0 0 0 1 0" class="icon-fecolormatrix"></feColorMatrix></filter> <filter id="colorsb8248478299"><feColorMatrix type="matrix" values="0 0 0 0 0  0 0 0 0 0  0 0 0 0 0  0 0 0 1 0" class="icon-fecolormatrix"></feColorMatrix></filter></defs></g><defs v-gra="od"></defs></svg>