<?xml version="1.0" encoding="UTF-8"?>
<!DOCTYPE svg PUBLIC "-//W3C//DTD SVG 1.1//EN" "http://www.w3.org/Graphics/SVG/1.1/DTD/svg11.dtd">
<svg xmlns="http://www.w3.org/2000/svg" version="1.1" width="746px" height="746px" style="shape-rendering:geometricPrecision; text-rendering:geometricPrecision; image-rendering:optimizeQuality; fill-rule:evenodd; clip-rule:evenodd" xmlns:xlink="http://www.w3.org/1999/xlink">
<g><path style="opacity:0.997" fill="#00ae48" d="M 346.5,-0.5 C 363.5,-0.5 380.5,-0.5 397.5,-0.5C 523.744,11.6769 621.244,70.6769 690,176.5C 745.535,271.108 758.869,371.442 730,477.5C 701.438,569.705 646.271,641.205 564.5,692C 460.66,750.963 352.326,760.63 239.5,721C 129.006,676.173 54.5059,597.339 16,484.5C 7.46381,455.93 1.96381,426.93 -0.5,397.5C -0.5,380.833 -0.5,364.167 -0.5,347.5C 11.3857,220.839 70.3857,123.006 176.5,54C 228.943,22.4627 285.61,4.29599 346.5,-0.5 Z"/></g>
<g><path style="opacity:1" fill="#fefefe" d="M 297.5,175.5 C 395.167,175.333 492.834,175.5 590.5,176C 597.026,178.526 601.526,183.026 604,189.5C 604.667,216.167 604.667,242.833 604,269.5C 601.737,276.097 597.237,280.264 590.5,282C 556.168,282.5 521.835,282.667 487.5,282.5C 487.5,298.167 487.5,313.833 487.5,329.5C 522.895,329.02 558.228,329.52 593.5,331C 598.989,333.468 602.489,337.635 604,343.5C 604.667,369.833 604.667,396.167 604,422.5C 602.024,427.954 598.524,432.121 593.5,435C 558.228,436.48 522.895,436.98 487.5,436.5C 487.5,454.5 487.5,472.5 487.5,490.5C 521.835,490.333 556.168,490.5 590.5,491C 597.026,493.526 601.526,498.026 604,504.5C 604.667,531.167 604.667,557.833 604,584.5C 601.5,591 597,595.5 590.5,598C 492.833,598.667 395.167,598.667 297.5,598C 291.026,595.526 286.526,591.026 284,584.5C 283.333,557.833 283.333,531.167 284,504.5C 286.5,498 291,493.5 297.5,491C 325.165,490.5 352.831,490.333 380.5,490.5C 380.5,472.5 380.5,454.5 380.5,436.5C 352.831,436.667 325.165,436.5 297.5,436C 290.333,434.167 285.833,429.667 284,422.5C 283.333,396.167 283.333,369.833 284,343.5C 285.736,336.763 289.903,332.263 296.5,330C 324.498,329.5 352.498,329.333 380.5,329.5C 380.5,313.833 380.5,298.167 380.5,282.5C 352.498,282.667 324.498,282.5 296.5,282C 290.359,279.859 286.193,275.693 284,269.5C 283.333,242.833 283.333,216.167 284,189.5C 286.352,182.65 290.852,177.983 297.5,175.5 Z"/></g>
<g><path style="opacity:1" fill="#fdfefe" d="M 140.5,175.5 C 167.169,175.333 193.835,175.5 220.5,176C 235.333,192.833 250.167,209.667 265,226.5C 263.548,250.914 261.048,275.247 257.5,299.5C 230.831,299.667 204.165,299.5 177.5,299C 164.965,282.097 152.798,264.93 141,247.5C 140.5,223.502 140.333,199.502 140.5,175.5 Z"/></g>
<g><path style="opacity:1" fill="#fefefe" d="M 140.5,312.5 C 167.502,312.333 194.502,312.5 221.5,313C 236,329.5 250.5,346 265,362.5C 263.548,386.921 261.048,411.254 257.5,435.5C 230.594,436.056 203.761,436.056 177,435.5C 165.389,418.223 153.389,401.223 141,384.5C 140.5,360.502 140.333,336.502 140.5,312.5 Z"/></g>
<g><path style="opacity:1" fill="#fefefe" d="M 166.5,460.5 C 198.186,460.938 229.853,461.938 261.5,463.5C 254.833,513.167 248.167,562.833 241.5,612.5C 207.85,610.518 174.183,608.852 140.5,607.5C 149.248,558.512 157.915,509.512 166.5,460.5 Z"/></g>
</svg>
